<svg width="282" height="96" viewBox="0 0 282 96" fill="none" xmlns="http://www.w3.org/2000/svg">
<rect x="0.5" y="0.5" width="281" height="95" stroke="white"/>
<g clip-path="url(#clip0_153_3430)">
<path d="M44.1914 68C43.4203 67.739 42.6522 67.4677 41.8758 67.2193C40.6893 66.8394 40.3512 66.2173 40.706 65.0275C40.8991 64.3793 41.1537 63.7427 41.2727 63.082C41.4949 61.8348 42.9611 61.2461 43.9264 62.4422C45.7171 61.5937 47.3012 60.4529 48.6589 59.0053C51.2468 56.2478 52.665 52.9696 53.0073 49.2091C53.1148 48.0245 54.0696 47.2271 55.1779 47.3429C56.331 47.463 57.0938 48.4023 56.9915 49.6067C56.7077 52.9341 55.6882 56.0172 53.8745 58.8258C51.9178 61.8567 49.3288 64.1936 46.1126 65.8322C46.0208 65.8792 45.9331 65.9334 45.8465 65.9825C45.9467 67.2673 45.7922 67.5679 44.8176 68C44.6078 68 44.3991 68 44.1914 68ZM44.6287 66.6953C44.5369 66.5064 44.5003 66.4261 44.4596 66.3467C44.0328 65.5066 44.1048 65.3249 44.9532 64.9116C50.4026 62.2565 53.84 57.972 55.2613 52.0855C55.4711 51.2172 55.5535 50.3165 55.6621 49.4272C55.7132 49.0108 55.4241 48.7008 55.0443 48.6747C54.6665 48.6497 54.3973 48.8855 54.3378 49.2968C54.319 49.4251 54.3023 49.5546 54.2888 49.684C53.8724 53.7983 52.1985 57.3239 49.2985 60.263C47.7833 61.7983 46.0239 62.987 44.0506 63.8575C43.4881 64.1059 43.223 64.013 42.9329 63.4797C42.8755 63.3732 42.8108 63.2699 42.7054 63.0925C42.4289 63.99 42.1732 64.8041 41.9353 65.6245C41.9155 65.6923 42.0073 65.852 42.0793 65.876C42.8881 66.1474 43.702 66.401 44.6287 66.6953Z" fill="#F2F4F5"/>
<path d="M16.9991 46.1228C17.1243 45.3818 17.2172 44.6335 17.381 43.9008C18.7606 37.7293 22.2596 33.1663 27.8352 30.1896C27.9479 30.1291 28.0606 30.0685 28.19 29.9986C28.1671 29.8995 28.1462 29.8139 28.1264 29.7273C27.8843 28.6606 28.812 27.762 29.867 28.0657C30.7404 28.3172 31.6076 28.5969 32.4675 28.8902C33.2376 29.1532 33.6029 29.8755 33.3806 30.6739C33.15 31.4995 32.9048 32.3219 32.647 33.1402C32.2807 34.306 31.0243 34.5732 30.1989 33.6683C30.1644 33.6297 30.1373 33.5848 30.0997 33.5336C26.7698 35.1608 24.2757 37.5937 22.6238 40.8824C21.7023 42.7172 21.1931 44.6679 21.0011 46.7094C20.8967 47.823 20.2111 48.538 19.2051 48.6434C18.2232 48.7467 17.428 48.1914 17.0638 47.1488C17.0523 47.1154 17.02 47.0882 16.998 47.058C16.9991 46.748 16.9991 46.4359 16.9991 46.1228ZM29.3692 29.2983C29.484 29.5269 29.5435 29.65 29.6072 29.7721C29.9484 30.4286 29.8461 30.7094 29.1741 31.0319C23.5494 33.7246 20.0567 38.1249 18.6771 44.1982C18.5018 44.9685 18.4298 45.7648 18.3411 46.5518C18.2931 46.9787 18.5613 47.2855 18.9401 47.321C19.3335 47.3586 19.6132 47.1164 19.6685 46.6822C19.7019 46.4244 19.7123 46.1635 19.7499 45.9057C20.6755 39.6372 23.9658 35.0867 29.652 32.2749C30.3804 31.9149 30.7811 31.8021 31.1933 32.7394C31.208 32.7717 31.2424 32.7957 31.2674 32.8239C31.2914 32.8041 31.3238 32.7916 31.33 32.7717C31.5001 32.2395 31.6692 31.7082 31.8341 31.1749C32.1419 30.176 32.1398 30.1771 31.1266 29.8598C30.5756 29.6865 30.0267 29.5081 29.3692 29.2983Z" fill="#F2F4F5"/>
<path d="M35.1274 67.9999C34.4 67.8767 33.6654 67.7859 32.9464 67.6263C26.7321 66.2444 22.1415 62.7313 19.1664 57.1036C19.1184 57.0128 19.0652 56.9241 19.0172 56.8385C17.7472 56.9512 17.4581 56.803 17 55.8115C17 55.6028 17 55.3951 17 55.1863C17.264 54.4025 17.5343 53.6208 17.791 52.8349C18.1615 51.6962 18.7949 51.3518 19.9334 51.6899C20.594 51.8851 21.242 52.1481 21.9151 52.2671C23.1819 52.4915 23.7361 53.9694 22.5579 54.9212C23.472 56.8427 24.7149 58.5231 26.3063 59.9425C28.9872 62.3336 32.1293 63.6602 35.7003 63.9973C36.7897 64.1006 37.5348 64.802 37.6266 65.7591C37.7279 66.8038 37.1644 67.6022 36.0895 67.9435C36.053 67.955 36.0217 67.9801 35.9872 67.9999C35.7003 67.9999 35.4133 67.9999 35.1274 67.9999ZM18.3034 55.6289C18.5371 55.512 18.6519 55.4577 18.7646 55.3982C19.4262 55.0548 19.7028 55.1561 20.0284 55.8199C23.1757 62.2522 28.3256 65.8436 35.4289 66.6525C35.9424 66.7109 36.2794 66.4813 36.3243 66.068C36.3713 65.6432 36.1166 65.3698 35.5782 65.3207C31.9519 64.9878 28.7211 63.6894 25.9129 61.3651C23.8122 59.6252 22.2198 57.4981 21.1262 54.9995C20.9018 54.487 21.0041 54.2042 21.4914 53.9412C21.6072 53.8786 21.722 53.8128 21.9172 53.7032C21.0145 53.4246 20.212 53.1709 19.4043 52.9361C19.3271 52.9131 19.1528 52.982 19.132 53.0446C18.8575 53.864 18.6008 54.6906 18.3034 55.6289Z" fill="#F2F4F5"/>
<path d="M49.6826 48.0234C49.6575 48.3866 49.6471 48.7509 49.6043 49.112C49.5438 49.6338 49.2537 50.0002 48.7737 50.2058C48.3197 50.3999 47.8522 50.5638 47.4056 50.7736C47.2647 50.8404 47.1332 50.9938 47.0664 51.1399C46.8035 51.7181 46.5572 52.3057 46.3318 52.8996C46.2754 53.0488 46.2702 53.2513 46.3234 53.4006C46.4852 53.8525 46.6876 54.2898 46.8744 54.7334C47.1061 55.2824 47.0184 55.7886 46.6208 56.2175C46.1794 56.6945 45.7171 57.1527 45.2444 57.5994C44.7946 58.0242 44.2697 58.115 43.6937 57.8624C43.2648 57.6745 42.839 57.4783 42.3997 57.3197C42.2515 57.2665 42.048 57.2738 41.8999 57.3301C41.3061 57.5566 40.7196 57.804 40.1404 58.068C39.9943 58.1348 39.842 58.2695 39.7762 58.4114C39.578 58.8341 39.4267 59.2787 39.2482 59.7108C39.0312 60.2348 38.645 60.5771 38.0742 60.6053C37.3615 60.6408 36.6435 60.6408 35.9308 60.6053C35.3589 60.5771 34.976 60.2295 34.7599 59.7056C34.5815 59.2735 34.4302 58.8289 34.233 58.4051C34.1662 58.2632 34.0117 58.1296 33.8656 58.0638C33.275 57.7956 32.676 57.5472 32.0718 57.3113C31.9455 57.2623 31.7692 57.2571 31.6429 57.3051C31.1806 57.4783 30.7308 57.6839 30.2758 57.876C29.728 58.1066 29.2198 58.0252 28.7909 57.6265C28.3056 57.1757 27.836 56.7049 27.3842 56.2207C26.973 55.7802 26.8906 55.2646 27.1348 54.7021C27.3518 54.2011 27.7202 53.6991 27.7265 53.1939C27.7327 52.7096 27.2913 52.2368 27.1703 51.7296C27.0054 51.0397 26.5901 50.7287 25.9566 50.497C24.4664 49.9511 24.3537 49.7445 24.3423 48.1497C24.3391 47.7593 24.3517 47.369 24.384 46.9797C24.4351 46.3587 24.7795 45.9548 25.3566 45.7346C25.7573 45.5811 26.1643 45.4392 26.5473 45.2503C26.7101 45.1699 26.8655 45.004 26.9428 44.838C27.2057 44.2734 27.4416 43.6962 27.6639 43.1149C27.7213 42.9646 27.739 42.7621 27.6858 42.6149C27.5198 42.1505 27.3091 41.7027 27.1202 41.2466C26.8989 40.7122 26.9835 40.2134 27.3696 39.7959C27.8287 39.3001 28.3088 38.8211 28.8034 38.3618C29.2208 37.9746 29.7207 37.8922 30.2539 38.1134C30.7705 38.3274 31.2818 38.7156 31.7984 38.7188C32.3087 38.7219 32.8043 38.2742 33.3355 38.1416C33.9804 37.9809 34.2883 37.6031 34.4865 37.0008C34.9749 35.5209 35.2702 35.3288 36.9211 35.3393C37.3114 35.3413 37.7027 35.3528 38.0899 35.3904C38.645 35.4447 39.0228 35.762 39.2357 36.2692C39.4173 36.7002 39.5644 37.147 39.7648 37.5686C39.8368 37.7199 40.0006 37.8619 40.1561 37.9339C40.7217 38.1938 41.2977 38.4349 41.88 38.6551C42.0397 38.7156 42.2557 38.7282 42.4143 38.6718C42.8672 38.5121 43.3024 38.3055 43.7459 38.1186C44.2791 37.8942 44.7811 37.9736 45.1985 38.3576C45.7046 38.8242 46.193 39.3137 46.6584 39.8209C47.033 40.229 47.103 40.7227 46.8922 41.2404C46.7064 41.6975 46.4904 42.1432 46.3213 42.6066C46.2681 42.7537 46.2806 42.9573 46.337 43.1065C46.5634 43.7004 46.8108 44.2869 47.0716 44.8672C47.1322 45.0019 47.2574 45.1428 47.3889 45.2044C47.7875 45.3922 48.2008 45.553 48.614 45.7064C49.26 45.9454 49.5991 46.4057 49.6335 47.0872C49.6492 47.3982 49.6367 47.7113 49.6367 48.0234C49.6523 48.0224 49.6669 48.0224 49.6826 48.0234ZM31.9215 55.7719C32.053 55.8199 32.1876 55.8627 32.317 55.9159C33.1195 56.2468 33.9272 56.5651 34.7172 56.9231C34.9332 57.0212 35.12 57.2247 35.2681 57.4188C35.3892 57.5785 35.433 57.7977 35.5092 57.9908C36.0905 59.4499 36.0915 59.4561 37.6746 59.3006C37.8144 59.2871 38.0012 59.1483 38.0617 59.0188C38.2986 58.5137 38.5031 57.9918 38.7014 57.47C38.8183 57.1631 39.0259 57.0076 39.3307 56.8928C40.107 56.6016 40.8772 56.2895 41.6296 55.942C41.9426 55.7969 42.215 55.7635 42.5197 55.9055C42.6731 55.9775 42.8276 56.0443 42.9831 56.11C44.4315 56.7258 44.4273 56.7216 45.4823 55.5099C45.6263 55.344 45.6378 55.2187 45.5533 55.0288C45.3206 54.5069 45.0764 53.985 44.9032 53.4423C44.8291 53.2106 44.8552 52.9038 44.9418 52.671C45.2402 51.8705 45.5679 51.0794 45.9238 50.3018C46.0271 50.0764 46.2243 49.8394 46.4413 49.7299C46.9506 49.4742 47.5016 49.303 48.0234 49.0702C48.1371 49.0201 48.2675 48.8625 48.2759 48.7467C48.3124 48.2551 48.3218 47.7593 48.302 47.2667C48.2978 47.153 48.1611 46.9943 48.0463 46.9432C47.5256 46.7073 46.9955 46.4923 46.4612 46.2888C46.1679 46.1771 46.0156 45.9777 45.9039 45.6886C45.6023 44.9027 45.2851 44.121 44.9376 43.3539C44.8019 43.0554 44.7706 42.7934 44.9011 42.4991C45.1265 41.9877 45.354 41.4762 45.5533 40.9544C45.5971 40.8396 45.5731 40.6371 45.4959 40.5484C45.1807 40.1862 44.8447 39.8387 44.4878 39.5172C44.395 39.4337 44.1789 39.4045 44.0569 39.4494C43.5215 39.6477 43.0102 39.918 42.4665 40.0892C42.2244 40.1653 41.9051 40.134 41.6609 40.0432C40.8709 39.752 40.105 39.3961 39.3181 39.0966C39.0291 38.986 38.8162 38.8419 38.7118 38.5455C38.6471 38.3618 38.5657 38.1844 38.4937 38.0028C37.9135 36.5437 37.9125 36.5374 36.3305 36.6909C36.1896 36.7044 36.0028 36.8422 35.9423 36.9716C35.7012 37.4893 35.5301 38.0414 35.2723 38.5486C35.1617 38.7657 34.929 38.9682 34.7036 39.0715C33.9262 39.4274 33.1341 39.7531 32.3337 40.0516C32.1 40.1382 31.814 40.1278 31.5594 40.1006C31.3736 40.0808 31.1994 39.9587 31.0199 39.8825C29.5694 39.2667 29.5735 39.2698 28.5216 40.4816C28.3776 40.6475 28.3662 40.7728 28.4507 40.9627C28.6792 41.4731 28.8817 41.9939 29.1039 42.5064C29.2323 42.8038 29.1937 43.0637 29.0591 43.3612C28.7147 44.1158 28.3975 44.8829 28.1063 45.6594C27.9915 45.9642 27.8392 46.176 27.5324 46.2929C27.0221 46.486 26.5118 46.6833 26.0171 46.9129C25.8857 46.9745 25.7364 47.1509 25.7229 47.2865C25.679 47.7385 25.6957 48.1956 25.6822 48.6507C25.6759 48.8772 25.7719 49.0003 25.989 49.0796C26.4888 49.2633 26.9772 49.4783 27.475 49.6683C27.8173 49.7987 27.9957 50.0284 28.1199 50.3822C28.3829 51.1263 28.6907 51.858 29.0309 52.5719C29.1979 52.9215 29.2313 53.2211 29.0685 53.5697C28.8493 54.0404 28.6406 54.5184 28.4653 55.0068C28.4173 55.1415 28.4476 55.3669 28.5352 55.4755C28.7961 55.798 29.1112 56.0756 29.3878 56.3866C29.5892 56.611 29.7791 56.6548 30.063 56.516C30.5294 56.2875 31.0168 56.1027 31.4978 55.9055C31.6304 55.8533 31.7692 55.8199 31.9215 55.7719Z" fill="#F2F4F5"/>
<path d="M54.9761 39.1531C55.2839 39.1312 55.5448 39.0769 55.7973 39.102C56.6155 39.1824 57.179 40.0058 56.9484 40.8105C56.6906 41.7102 56.4047 42.6015 56.0989 43.4856C55.8328 44.2548 55.1128 44.6002 54.304 44.3717C53.4911 44.142 52.6845 43.8905 51.8736 43.6536C51.331 43.495 50.9543 43.1662 50.8332 42.6036C50.709 42.0296 50.8917 41.5516 51.3498 41.1831C51.38 41.1581 51.4166 41.1404 51.4614 41.1122C50.827 39.7595 50.0391 38.5415 49.0686 37.4477C46.1801 34.1903 42.5527 32.3962 38.2231 31.9944C37.0366 31.8848 36.2403 30.9434 36.3499 29.8297C36.4616 28.6816 37.4101 27.8895 38.6092 28.0147C45.8806 28.7745 51.2778 32.3638 54.7862 38.7826C54.8519 38.9058 54.9145 39.0342 54.9761 39.1531ZM55.6951 40.3899C55.5104 40.4734 55.4165 40.51 55.3267 40.5559C54.5232 40.9661 54.3228 40.8846 53.919 40.057C51.1995 34.4826 46.8031 31.0195 40.7557 29.6638C39.9846 29.4905 39.1883 29.4206 38.4005 29.3371C38.0039 29.2953 37.7076 29.5782 37.6762 29.9445C37.6429 30.3223 37.8797 30.6021 38.2846 30.6626C38.413 30.6814 38.5424 30.6981 38.6718 30.7106C42.5298 31.0895 45.8879 32.5987 48.7493 35.2058C50.5431 36.8403 51.9154 38.7858 52.8848 41.0109C53.0977 41.5004 52.9954 41.7854 52.53 42.0452C52.409 42.1131 52.2869 42.1778 52.0803 42.2895C52.9975 42.5713 53.823 42.8291 54.6547 43.0702C54.7131 43.0869 54.855 42.9992 54.878 42.9324C55.1483 42.1235 55.4029 41.3073 55.6951 40.3899Z" fill="#F2F4F5"/>
<path d="M34.9275 50.3603C35.8593 49.1956 36.7443 48.0892 37.6302 46.9829C38.3461 46.0885 39.0609 45.195 39.7778 44.3016C40.0095 44.0136 40.2996 43.9134 40.6409 44.0845C40.9341 44.2307 41.0447 44.4926 40.9769 44.8026C40.9456 44.9466 40.8517 45.0875 40.7567 45.2065C39.0526 47.343 37.3454 49.4763 35.636 51.6076C35.2238 52.1221 34.869 52.1346 34.3984 51.6681C34.0467 51.3195 33.6982 50.9699 33.3486 50.6192C32.9573 50.2247 32.9113 49.8343 33.2192 49.5348C33.5249 49.2363 33.8871 49.277 34.2742 49.6642C34.484 49.8761 34.6833 50.0994 34.9275 50.3603Z" fill="#F2F4F5"/>
</g>
<path d="M81.687 31H80.112L78.32 26.765H75.779V31H74.281V20.878H78.299C79.0503 20.878 79.6733 20.9947 80.168 21.228C80.6627 21.4567 81.0313 21.7833 81.274 22.208C81.5167 22.6327 81.638 23.1343 81.638 23.713C81.638 24.259 81.5447 24.714 81.358 25.078C81.176 25.442 80.938 25.7383 80.644 25.967C80.3547 26.1957 80.049 26.3753 79.727 26.506L81.687 31ZM77.893 25.554C78.5977 25.554 79.1437 25.4023 79.531 25.099C79.9183 24.791 80.112 24.3523 80.112 23.783C80.112 23.223 79.9347 22.7983 79.58 22.509C79.23 22.2197 78.754 22.075 78.152 22.075H75.779V25.554H77.893ZM83.824 31V20.878H90.362L90.355 22.18H85.329V25.253H89.816V26.534H85.322V29.677L90.481 29.684V31H83.824ZM96.15 31.14C95.6693 31.14 95.2003 31.0793 94.743 30.958C94.2857 30.8367 93.8703 30.657 93.497 30.419C93.1237 30.1763 92.8133 29.8753 92.566 29.516C92.3233 29.1567 92.1717 28.7367 92.111 28.256H93.672C93.7513 28.62 93.9077 28.9257 94.141 29.173C94.379 29.4203 94.6707 29.607 95.016 29.733C95.3613 29.859 95.737 29.922 96.143 29.922C96.591 29.922 96.9923 29.8613 97.347 29.74C97.7063 29.614 97.991 29.4367 98.201 29.208C98.411 28.9747 98.516 28.6947 98.516 28.368C98.516 28.074 98.4437 27.8243 98.299 27.619C98.159 27.4137 97.9583 27.2433 97.697 27.108C97.4403 26.968 97.13 26.8583 96.766 26.779L94.848 26.345C94.0967 26.1863 93.504 25.8923 93.07 25.463C92.6407 25.029 92.4237 24.455 92.419 23.741C92.4143 23.1437 92.5707 22.621 92.888 22.173C93.21 21.725 93.6487 21.3773 94.204 21.13C94.7593 20.878 95.3917 20.752 96.101 20.752C96.927 20.752 97.62 20.8897 98.18 21.165C98.7447 21.4403 99.1717 21.8043 99.461 22.257C99.7503 22.705 99.8973 23.1927 99.902 23.72H98.369C98.3317 23.2907 98.2057 22.95 97.991 22.698C97.7763 22.446 97.5057 22.2663 97.179 22.159C96.857 22.047 96.5023 21.991 96.115 21.991C95.835 21.991 95.5667 22.026 95.31 22.096C95.0533 22.166 94.827 22.2687 94.631 22.404C94.435 22.5393 94.2787 22.7073 94.162 22.908C94.05 23.104 93.994 23.3303 93.994 23.587C93.994 23.9323 94.1107 24.2123 94.344 24.427C94.5773 24.6417 95.0067 24.826 95.632 24.98L97.508 25.407C98.0447 25.519 98.4787 25.6847 98.81 25.904C99.1413 26.1187 99.3957 26.3637 99.573 26.639C99.7503 26.9143 99.8717 27.2013 99.937 27.5C100.002 27.794 100.035 28.0763 100.035 28.347C100.035 28.8697 99.8787 29.3433 99.566 29.768C99.2533 30.188 98.8077 30.5217 98.229 30.769C97.6503 31.0163 96.9573 31.14 96.15 31.14ZM105.894 31.14C104.974 31.14 104.179 30.937 103.507 30.531C102.839 30.1203 102.324 29.53 101.96 28.76C101.6 27.9853 101.421 27.052 101.421 25.96C101.421 24.8587 101.603 23.9207 101.967 23.146C102.335 22.3667 102.853 21.7717 103.521 21.361C104.193 20.9457 104.984 20.738 105.894 20.738C106.799 20.738 107.583 20.9457 108.246 21.361C108.913 21.7717 109.426 22.3667 109.786 23.146C110.15 23.9207 110.332 24.8587 110.332 25.96C110.332 27.052 110.152 27.983 109.793 28.753C109.433 29.523 108.92 30.1133 108.253 30.524C107.59 30.9347 106.804 31.14 105.894 31.14ZM105.894 29.859C106.482 29.859 106.983 29.7237 107.399 29.453C107.819 29.1823 108.138 28.76 108.358 28.186C108.577 27.612 108.687 26.877 108.687 25.981C108.687 25.0617 108.575 24.3103 108.351 23.727C108.131 23.1437 107.812 22.7143 107.392 22.439C106.976 22.159 106.477 22.019 105.894 22.019C105.31 22.019 104.806 22.159 104.382 22.439C103.962 22.719 103.637 23.1507 103.409 23.734C103.18 24.3173 103.066 25.0663 103.066 25.981C103.066 26.8817 103.18 27.619 103.409 28.193C103.637 28.7623 103.962 29.1823 104.382 29.453C104.806 29.7237 105.31 29.859 105.894 29.859ZM112.351 20.878H113.87V29.684H118.546V31H112.344L112.351 20.878ZM127.362 20.878L123.799 31H122.035L118.521 20.878H119.984L122.917 29.278L125.906 20.878H127.362ZM128.955 20.878H130.453V31H128.955V20.878ZM139.616 20.878H141.121V31H139.777L134.513 23.293V31H133.015V20.878H134.464L139.616 28.424V20.878ZM147.501 31.14C146.601 31.14 145.824 30.9347 145.17 30.524C144.517 30.1133 144.013 29.523 143.658 28.753C143.308 27.9783 143.133 27.0497 143.133 25.967C143.133 24.875 143.313 23.9393 143.672 23.16C144.036 22.376 144.552 21.7763 145.219 21.361C145.887 20.9457 146.671 20.738 147.571 20.738C148.108 20.738 148.605 20.829 149.062 21.011C149.524 21.193 149.93 21.4403 150.28 21.753C150.635 22.0657 150.915 22.4203 151.12 22.817C151.326 23.2137 151.442 23.629 151.47 24.063H149.874C149.809 23.7037 149.669 23.3723 149.454 23.069C149.244 22.761 148.976 22.5137 148.649 22.327C148.323 22.1403 147.954 22.047 147.543 22.047C146.997 22.047 146.514 22.1823 146.094 22.453C145.674 22.7237 145.345 23.146 145.107 23.72C144.874 24.2893 144.757 25.0267 144.757 25.932C144.757 26.6367 144.83 27.2363 144.974 27.731C145.124 28.2257 145.327 28.6247 145.583 28.928C145.84 29.2313 146.141 29.453 146.486 29.593C146.832 29.7283 147.2 29.796 147.592 29.796C147.98 29.796 148.32 29.7283 148.614 29.593C148.908 29.4577 149.153 29.2827 149.349 29.068C149.55 28.8533 149.704 28.6223 149.811 28.375C149.923 28.123 149.989 27.8803 150.007 27.647L150.056 26.828H147.69V25.75L151.617 25.764V31H150.532V29.516C150.355 29.7913 150.133 30.0527 149.867 30.3C149.601 30.5473 149.275 30.7503 148.887 30.909C148.5 31.063 148.038 31.14 147.501 31.14ZM156.445 31L160.099 20.878H161.751L165.398 31H163.886L162.934 28.347H158.937L157.964 31H156.445ZM159.294 26.989H162.549L160.932 22.348L159.294 26.989ZM173.81 20.878H175.315V31H173.971L168.707 23.293V31H167.209V20.878H168.658L173.81 28.424V20.878ZM185.167 20.878L181.716 26.709V31H180.218V26.702L176.746 20.878H178.384L180.974 25.379L183.529 20.878H185.167ZM189.535 20.878H191.033V31H189.535V20.878ZM197.13 31.14C196.65 31.14 196.181 31.0793 195.723 30.958C195.266 30.8367 194.851 30.657 194.477 30.419C194.104 30.1763 193.794 29.8753 193.546 29.516C193.304 29.1567 193.152 28.7367 193.091 28.256H194.652C194.732 28.62 194.888 28.9257 195.121 29.173C195.359 29.4203 195.651 29.607 195.996 29.733C196.342 29.859 196.717 29.922 197.123 29.922C197.571 29.922 197.973 29.8613 198.327 29.74C198.687 29.614 198.971 29.4367 199.181 29.208C199.391 28.9747 199.496 28.6947 199.496 28.368C199.496 28.074 199.424 27.8243 199.279 27.619C199.139 27.4137 198.939 27.2433 198.677 27.108C198.421 26.968 198.11 26.8583 197.746 26.779L195.828 26.345C195.077 26.1863 194.484 25.8923 194.05 25.463C193.621 25.029 193.404 24.455 193.399 23.741C193.395 23.1437 193.551 22.621 193.868 22.173C194.19 21.725 194.629 21.3773 195.184 21.13C195.74 20.878 196.372 20.752 197.081 20.752C197.907 20.752 198.6 20.8897 199.16 21.165C199.725 21.4403 200.152 21.8043 200.441 22.257C200.731 22.705 200.878 23.1927 200.882 23.72H199.349C199.312 23.2907 199.186 22.95 198.971 22.698C198.757 22.446 198.486 22.2663 198.159 22.159C197.837 22.047 197.483 21.991 197.095 21.991C196.815 21.991 196.547 22.026 196.29 22.096C196.034 22.166 195.807 22.2687 195.611 22.404C195.415 22.5393 195.259 22.7073 195.142 22.908C195.03 23.104 194.974 23.3303 194.974 23.587C194.974 23.9323 195.091 24.2123 195.324 24.427C195.558 24.6417 195.987 24.826 196.612 24.98L198.488 25.407C199.025 25.519 199.459 25.6847 199.79 25.904C200.122 26.1187 200.376 26.3637 200.553 26.639C200.731 26.9143 200.852 27.2013 200.917 27.5C200.983 27.794 201.015 28.0763 201.015 28.347C201.015 28.8697 200.859 29.3433 200.546 29.768C200.234 30.188 199.788 30.5217 199.209 30.769C198.631 31.0163 197.938 31.14 197.13 31.14ZM206.728 31.14C206.247 31.14 205.778 31.0793 205.321 30.958C204.864 30.8367 204.448 30.657 204.075 30.419C203.702 30.1763 203.391 29.8753 203.144 29.516C202.901 29.1567 202.75 28.7367 202.689 28.256H204.25C204.329 28.62 204.486 28.9257 204.719 29.173C204.957 29.4203 205.249 29.607 205.594 29.733C205.939 29.859 206.315 29.922 206.721 29.922C207.169 29.922 207.57 29.8613 207.925 29.74C208.284 29.614 208.569 29.4367 208.779 29.208C208.989 28.9747 209.094 28.6947 209.094 28.368C209.094 28.074 209.022 27.8243 208.877 27.619C208.737 27.4137 208.536 27.2433 208.275 27.108C208.018 26.968 207.708 26.8583 207.344 26.779L205.426 26.345C204.675 26.1863 204.082 25.8923 203.648 25.463C203.219 25.029 203.002 24.455 202.997 23.741C202.992 23.1437 203.149 22.621 203.466 22.173C203.788 21.725 204.227 21.3773 204.782 21.13C205.337 20.878 205.97 20.752 206.679 20.752C207.505 20.752 208.198 20.8897 208.758 21.165C209.323 21.4403 209.75 21.8043 210.039 22.257C210.328 22.705 210.475 23.1927 210.48 23.72H208.947C208.91 23.2907 208.784 22.95 208.569 22.698C208.354 22.446 208.084 22.2663 207.757 22.159C207.435 22.047 207.08 21.991 206.693 21.991C206.413 21.991 206.145 22.026 205.888 22.096C205.631 22.166 205.405 22.2687 205.209 22.404C205.013 22.5393 204.857 22.7073 204.74 22.908C204.628 23.104 204.572 23.3303 204.572 23.587C204.572 23.9323 204.689 24.2123 204.922 24.427C205.155 24.6417 205.585 24.826 206.21 24.98L208.086 25.407C208.623 25.519 209.057 25.6847 209.388 25.904C209.719 26.1187 209.974 26.3637 210.151 26.639C210.328 26.9143 210.45 27.2013 210.515 27.5C210.58 27.794 210.613 28.0763 210.613 28.347C210.613 28.8697 210.457 29.3433 210.144 29.768C209.831 30.188 209.386 30.5217 208.807 30.769C208.228 31.0163 207.535 31.14 206.728 31.14ZM220.29 27.402C220.29 28.1907 220.159 28.865 219.898 29.425C219.637 29.9803 219.226 30.405 218.666 30.699C218.111 30.993 217.385 31.14 216.489 31.14C215.584 31.14 214.851 30.9907 214.291 30.692C213.736 30.3933 213.33 29.957 213.073 29.383C212.821 28.809 212.695 28.109 212.695 27.283V20.878H214.242V27.472C214.242 28.2747 214.438 28.872 214.83 29.264C215.227 29.6513 215.78 29.845 216.489 29.845C216.96 29.845 217.366 29.761 217.707 29.593C218.052 29.4203 218.316 29.159 218.498 28.809C218.68 28.4543 218.771 28.0087 218.771 27.472V20.878H220.29V27.402ZM222.594 31V20.878H229.132L229.125 22.18H224.099V25.253H228.586V26.534H224.092V29.677L229.251 29.684V31H222.594ZM234.92 31.14C234.439 31.14 233.97 31.0793 233.513 30.958C233.055 30.8367 232.64 30.657 232.267 30.419C231.893 30.1763 231.583 29.8753 231.336 29.516C231.093 29.1567 230.941 28.7367 230.881 28.256H232.442C232.521 28.62 232.677 28.9257 232.911 29.173C233.149 29.4203 233.44 29.607 233.786 29.733C234.131 29.859 234.507 29.922 234.913 29.922C235.361 29.922 235.762 29.8613 236.117 29.74C236.476 29.614 236.761 29.4367 236.971 29.208C237.181 28.9747 237.286 28.6947 237.286 28.368C237.286 28.074 237.213 27.8243 237.069 27.619C236.929 27.4137 236.728 27.2433 236.467 27.108C236.21 26.968 235.9 26.8583 235.536 26.779L233.618 26.345C232.866 26.1863 232.274 25.8923 231.84 25.463C231.41 25.029 231.193 24.455 231.189 23.741C231.184 23.1437 231.34 22.621 231.658 22.173C231.98 21.725 232.418 21.3773 232.974 21.13C233.529 20.878 234.161 20.752 234.871 20.752C235.697 20.752 236.39 20.8897 236.95 21.165C237.514 21.4403 237.941 21.8043 238.231 22.257C238.52 22.705 238.667 23.1927 238.672 23.72H237.139C237.101 23.2907 236.975 22.95 236.761 22.698C236.546 22.446 236.275 22.2663 235.949 22.159C235.627 22.047 235.272 21.991 234.885 21.991C234.605 21.991 234.336 22.026 234.08 22.096C233.823 22.166 233.597 22.2687 233.401 22.404C233.205 22.5393 233.048 22.7073 232.932 22.908C232.82 23.104 232.764 23.3303 232.764 23.587C232.764 23.9323 232.88 24.2123 233.114 24.427C233.347 24.6417 233.776 24.826 234.402 24.98L236.278 25.407C236.814 25.519 237.248 25.6847 237.58 25.904C237.911 26.1187 238.165 26.3637 238.343 26.639C238.52 26.9143 238.641 27.2013 238.707 27.5C238.772 27.794 238.805 28.0763 238.805 28.347C238.805 28.8697 238.648 29.3433 238.336 29.768C238.023 30.188 237.577 30.5217 236.999 30.769C236.42 31.0163 235.727 31.14 234.92 31.14Z" fill="white"/>
<path d="M73.322 46.068V44.878H80.98V46.068H77.893V55H76.591V46.068H73.322ZM82.3835 55V44.598H83.6435V48.826C83.7648 48.6253 83.9282 48.4387 84.1335 48.266C84.3388 48.0887 84.5885 47.9463 84.8825 47.839C85.1765 47.727 85.5172 47.671 85.9045 47.671C86.3758 47.671 86.8028 47.7597 87.1855 47.937C87.5682 48.1097 87.8715 48.357 88.0955 48.679C88.3195 49.001 88.4315 49.3837 88.4315 49.827V55H87.1365V50.086C87.1365 49.652 86.9872 49.3183 86.6885 49.085C86.3945 48.847 86.0095 48.728 85.5335 48.728C85.2115 48.728 84.9082 48.7817 84.6235 48.889C84.3388 48.9917 84.1078 49.1503 83.9305 49.365C83.7578 49.575 83.6715 49.8433 83.6715 50.17V55H82.3835ZM91.3739 51.682C91.3739 52.1393 91.4486 52.5547 91.5979 52.928C91.7519 53.2967 91.9829 53.5907 92.2909 53.81C92.6036 54.0293 92.9932 54.139 93.4599 54.139C93.9219 54.139 94.3186 54.0317 94.6499 53.817C94.9859 53.6023 95.2006 53.292 95.2939 52.886H96.5189C96.4302 53.376 96.2342 53.789 95.9309 54.125C95.6276 54.461 95.2612 54.7153 94.8319 54.888C94.4026 55.056 93.9546 55.14 93.4879 55.14C92.8112 55.14 92.2162 54.993 91.7029 54.699C91.1896 54.405 90.7882 53.9827 90.4989 53.432C90.2096 52.8813 90.0649 52.221 90.0649 51.451C90.0649 50.6903 90.1956 50.023 90.4569 49.449C90.7182 48.875 91.0962 48.427 91.5909 48.105C92.0902 47.783 92.6899 47.622 93.3899 47.622C94.0712 47.622 94.6476 47.769 95.1189 48.063C95.5902 48.357 95.9472 48.7723 96.1899 49.309C96.4372 49.841 96.5609 50.4733 96.5609 51.206V51.682H91.3739ZM91.3809 50.807H95.3149C95.3149 50.3917 95.2449 50.0183 95.1049 49.687C94.9649 49.351 94.7502 49.0873 94.4609 48.896C94.1762 48.7 93.8169 48.602 93.3829 48.602C92.9302 48.602 92.5546 48.7117 92.2559 48.931C91.9619 49.1457 91.7402 49.4233 91.5909 49.764C91.4462 50.1 91.3762 50.4477 91.3809 50.807ZM98.3386 55V47.762H99.5706V49.155C99.6919 48.8097 99.8622 48.525 100.082 48.301C100.301 48.0723 100.551 47.902 100.831 47.79C101.115 47.678 101.409 47.622 101.713 47.622C101.82 47.622 101.925 47.629 102.028 47.643C102.13 47.657 102.21 47.6803 102.266 47.713V48.966C102.196 48.9333 102.105 48.9123 101.993 48.903C101.885 48.889 101.794 48.882 101.72 48.882C101.43 48.8633 101.16 48.882 100.908 48.938C100.656 48.9893 100.434 49.0803 100.243 49.211C100.051 49.3417 99.8996 49.5143 99.7876 49.729C99.6802 49.939 99.6266 50.1957 99.6266 50.499V55H98.3386ZM104.54 51.682C104.54 52.1393 104.615 52.5547 104.764 52.928C104.918 53.2967 105.149 53.5907 105.457 53.81C105.77 54.0293 106.159 54.139 106.626 54.139C107.088 54.139 107.485 54.0317 107.816 53.817C108.152 53.6023 108.367 53.292 108.46 52.886H109.685C109.596 53.376 109.4 53.789 109.097 54.125C108.794 54.461 108.427 54.7153 107.998 54.888C107.569 55.056 107.121 55.14 106.654 55.14C105.977 55.14 105.382 54.993 104.869 54.699C104.356 54.405 103.954 53.9827 103.665 53.432C103.376 52.8813 103.231 52.221 103.231 51.451C103.231 50.6903 103.362 50.023 103.623 49.449C103.884 48.875 104.262 48.427 104.757 48.105C105.256 47.783 105.856 47.622 106.556 47.622C107.237 47.622 107.814 47.769 108.285 48.063C108.756 48.357 109.113 48.7723 109.356 49.309C109.603 49.841 109.727 50.4733 109.727 51.206V51.682H104.54ZM104.547 50.807H108.481C108.481 50.3917 108.411 50.0183 108.271 49.687C108.131 49.351 107.916 49.0873 107.627 48.896C107.342 48.7 106.983 48.602 106.549 48.602C106.096 48.602 105.721 48.7117 105.422 48.931C105.128 49.1457 104.906 49.4233 104.757 49.764C104.612 50.1 104.542 50.4477 104.547 50.807ZM118.737 47.762V48.707H116.98V55H115.678V48.707H114.152V47.762H115.678V46.642C115.678 46.068 115.825 45.6317 116.119 45.333C116.413 45.0297 116.852 44.878 117.435 44.878H118.8L118.807 45.795H117.722C117.428 45.795 117.227 45.8743 117.12 46.033C117.013 46.1917 116.959 46.432 116.959 46.754V47.762H118.737ZM123.132 55.14C122.464 55.14 121.881 54.9977 121.382 54.713C120.882 54.4237 120.495 54.0013 120.22 53.446C119.944 52.8907 119.807 52.2117 119.807 51.409C119.807 50.653 119.935 49.9903 120.192 49.421C120.448 48.8517 120.824 48.4107 121.319 48.098C121.818 47.7807 122.422 47.622 123.132 47.622C123.799 47.622 124.378 47.769 124.868 48.063C125.362 48.3523 125.745 48.7793 126.016 49.344C126.286 49.9087 126.422 50.597 126.422 51.409C126.422 52.1463 126.296 52.795 126.044 53.355C125.796 53.915 125.428 54.3537 124.938 54.671C124.452 54.9837 123.85 55.14 123.132 55.14ZM123.132 54.118C123.566 54.118 123.932 54.0083 124.231 53.789C124.529 53.5697 124.756 53.2547 124.91 52.844C125.064 52.4333 125.141 51.9457 125.141 51.381C125.141 50.863 125.073 50.3987 124.938 49.988C124.802 49.5727 124.585 49.2437 124.287 49.001C123.993 48.7583 123.608 48.637 123.132 48.637C122.693 48.637 122.322 48.7467 122.019 48.966C121.715 49.1807 121.484 49.4933 121.326 49.904C121.172 50.3147 121.095 50.807 121.095 51.381C121.095 51.8897 121.165 52.3517 121.305 52.767C121.445 53.1823 121.664 53.5113 121.963 53.754C122.261 53.9967 122.651 54.118 123.132 54.118ZM128.116 55V47.762H129.348V49.155C129.469 48.8097 129.64 48.525 129.859 48.301C130.078 48.0723 130.328 47.902 130.608 47.79C130.893 47.678 131.187 47.622 131.49 47.622C131.597 47.622 131.702 47.629 131.805 47.643C131.908 47.657 131.987 47.6803 132.043 47.713V48.966C131.973 48.9333 131.882 48.9123 131.77 48.903C131.663 48.889 131.572 48.882 131.497 48.882C131.208 48.8633 130.937 48.882 130.685 48.938C130.433 48.9893 130.211 49.0803 130.02 49.211C129.829 49.3417 129.677 49.5143 129.565 49.729C129.458 49.939 129.404 50.1957 129.404 50.499V55H128.116ZM137.402 57.31C136.978 57.31 136.686 57.2797 136.527 57.219C136.369 57.1583 136.289 57.128 136.289 57.128V56.288L137.024 56.302C137.295 56.3113 137.519 56.2927 137.696 56.246C137.874 56.1993 138.016 56.1363 138.123 56.057C138.231 55.9777 138.312 55.889 138.368 55.791C138.429 55.693 138.478 55.5997 138.515 55.511L138.767 54.825L135.939 47.762H137.248L139.383 53.348L141.504 47.762H142.771L139.719 55.546C139.533 56.0033 139.323 56.3603 139.089 56.617C138.861 56.8737 138.604 57.0533 138.319 57.156C138.039 57.2587 137.734 57.31 137.402 57.31ZM146.77 55.14C146.103 55.14 145.52 54.9977 145.02 54.713C144.521 54.4237 144.134 54.0013 143.858 53.446C143.583 52.8907 143.445 52.2117 143.445 51.409C143.445 50.653 143.574 49.9903 143.83 49.421C144.087 48.8517 144.463 48.4107 144.957 48.098C145.457 47.7807 146.061 47.622 146.77 47.622C147.438 47.622 148.016 47.769 148.506 48.063C149.001 48.3523 149.384 48.7793 149.654 49.344C149.925 49.9087 150.06 50.597 150.06 51.409C150.06 52.1463 149.934 52.795 149.682 53.355C149.435 53.915 149.066 54.3537 148.576 54.671C148.091 54.9837 147.489 55.14 146.77 55.14ZM146.77 54.118C147.204 54.118 147.571 54.0083 147.869 53.789C148.168 53.5697 148.394 53.2547 148.548 52.844C148.702 52.4333 148.779 51.9457 148.779 51.381C148.779 50.863 148.712 50.3987 148.576 49.988C148.441 49.5727 148.224 49.2437 147.925 49.001C147.631 48.7583 147.246 48.637 146.77 48.637C146.332 48.637 145.961 48.7467 145.657 48.966C145.354 49.1807 145.123 49.4933 144.964 49.904C144.81 50.3147 144.733 50.807 144.733 51.381C144.733 51.8897 144.803 52.3517 144.943 52.767C145.083 53.1823 145.303 53.5113 145.601 53.754C145.9 53.9967 146.29 54.118 146.77 54.118ZM154.305 55.14C153.927 55.1353 153.57 55.0817 153.234 54.979C152.903 54.8717 152.609 54.7153 152.352 54.51C152.096 54.3047 151.893 54.0503 151.743 53.747C151.599 53.439 151.526 53.082 151.526 52.676V47.762H152.821V52.543C152.821 53.0143 152.966 53.397 153.255 53.691C153.549 53.985 153.99 54.132 154.578 54.132C155.11 54.132 155.537 53.9943 155.859 53.719C156.186 53.439 156.349 53.0237 156.349 52.473V47.762H157.637V55H156.608L156.475 53.614C156.387 53.978 156.235 54.272 156.02 54.496C155.81 54.72 155.556 54.8857 155.257 54.993C154.963 55.0957 154.646 55.1447 154.305 55.14ZM166.574 48.707H164.943V53.208C164.943 53.4647 164.969 53.6537 165.02 53.775C165.076 53.8917 165.167 53.9663 165.293 53.999C165.424 54.0317 165.601 54.048 165.825 54.048H166.616V54.916C166.528 54.9487 166.392 54.9767 166.21 55C166.033 55.0233 165.811 55.035 165.545 55.035C165.046 55.035 164.659 54.9673 164.383 54.832C164.108 54.6967 163.914 54.496 163.802 54.23C163.695 53.964 163.641 53.6373 163.641 53.25V48.707H162.465V47.762H163.676L163.991 45.655H164.943V47.755H166.574V48.707ZM171.12 55.14C170.453 55.14 169.869 54.9977 169.37 54.713C168.871 54.4237 168.483 54.0013 168.208 53.446C167.933 52.8907 167.795 52.2117 167.795 51.409C167.795 50.653 167.923 49.9903 168.18 49.421C168.437 48.8517 168.812 48.4107 169.307 48.098C169.806 47.7807 170.411 47.622 171.12 47.622C171.787 47.622 172.366 47.769 172.856 48.063C173.351 48.3523 173.733 48.7793 174.004 49.344C174.275 49.9087 174.41 50.597 174.41 51.409C174.41 52.1463 174.284 52.795 174.032 53.355C173.785 53.915 173.416 54.3537 172.926 54.671C172.441 54.9837 171.839 55.14 171.12 55.14ZM171.12 54.118C171.554 54.118 171.92 54.0083 172.219 53.789C172.518 53.5697 172.744 53.2547 172.898 52.844C173.052 52.4333 173.129 51.9457 173.129 51.381C173.129 50.863 173.061 50.3987 172.926 49.988C172.791 49.5727 172.574 49.2437 172.275 49.001C171.981 48.7583 171.596 48.637 171.12 48.637C170.681 48.637 170.31 48.7467 170.007 48.966C169.704 49.1807 169.473 49.4933 169.314 49.904C169.16 50.3147 169.083 50.807 169.083 51.381C169.083 51.8897 169.153 52.3517 169.293 52.767C169.433 53.1823 169.652 53.5113 169.951 53.754C170.25 53.9967 170.639 54.118 171.12 54.118ZM181.818 55.14C181.314 55.14 180.845 55.063 180.411 54.909C179.981 54.7503 179.624 54.5053 179.34 54.174C179.055 53.838 178.875 53.411 178.801 52.893H179.977C180.042 53.1777 180.159 53.4157 180.327 53.607C180.499 53.7937 180.714 53.936 180.971 54.034C181.227 54.1273 181.507 54.174 181.811 54.174C182.296 54.174 182.688 54.083 182.987 53.901C183.285 53.719 183.435 53.439 183.435 53.061C183.435 52.795 183.355 52.5827 183.197 52.424C183.043 52.2607 182.802 52.1417 182.476 52.067L180.978 51.696C180.394 51.556 179.928 51.3367 179.578 51.038C179.228 50.7393 179.053 50.3217 179.053 49.785C179.048 49.3603 179.148 48.987 179.354 48.665C179.559 48.343 179.867 48.0887 180.278 47.902C180.688 47.7153 181.199 47.622 181.811 47.622C182.595 47.622 183.227 47.7993 183.708 48.154C184.193 48.504 184.445 49.0197 184.464 49.701H183.323C183.276 49.3557 183.12 49.0827 182.854 48.882C182.592 48.6767 182.24 48.574 181.797 48.574C181.335 48.574 180.959 48.6673 180.67 48.854C180.38 49.036 180.236 49.3207 180.236 49.708C180.236 49.9647 180.338 50.1677 180.544 50.317C180.749 50.4617 181.052 50.583 181.454 50.681L182.903 51.045C183.239 51.1337 183.514 51.2503 183.729 51.395C183.948 51.5397 184.121 51.7007 184.247 51.878C184.377 52.0553 184.468 52.242 184.52 52.438C184.576 52.6293 184.604 52.8137 184.604 52.991C184.604 53.4343 184.492 53.817 184.268 54.139C184.048 54.4563 183.731 54.7037 183.316 54.881C182.905 55.0537 182.406 55.14 181.818 55.14ZM189.29 55.14C188.622 55.14 188.039 54.9977 187.54 54.713C187.04 54.4237 186.653 54.0013 186.378 53.446C186.102 52.8907 185.965 52.2117 185.965 51.409C185.965 50.653 186.093 49.9903 186.35 49.421C186.606 48.8517 186.982 48.4107 187.477 48.098C187.976 47.7807 188.58 47.622 189.29 47.622C189.957 47.622 190.536 47.769 191.026 48.063C191.52 48.3523 191.903 48.7793 192.174 49.344C192.444 49.9087 192.58 50.597 192.58 51.409C192.58 52.1463 192.454 52.795 192.202 53.355C191.954 53.915 191.586 54.3537 191.096 54.671C190.61 54.9837 190.008 55.14 189.29 55.14ZM189.29 54.118C189.724 54.118 190.09 54.0083 190.389 53.789C190.687 53.5697 190.914 53.2547 191.068 52.844C191.222 52.4333 191.299 51.9457 191.299 51.381C191.299 50.863 191.231 50.3987 191.096 49.988C190.96 49.5727 190.743 49.2437 190.445 49.001C190.151 48.7583 189.766 48.637 189.29 48.637C188.851 48.637 188.48 48.7467 188.177 48.966C187.873 49.1807 187.642 49.4933 187.484 49.904C187.33 50.3147 187.253 50.807 187.253 51.381C187.253 51.8897 187.323 52.3517 187.463 52.767C187.603 53.1823 187.822 53.5113 188.121 53.754C188.419 53.9967 188.809 54.118 189.29 54.118ZM196.101 55.091C195.709 55.091 195.392 55.0373 195.149 54.93C194.911 54.8227 194.727 54.678 194.596 54.496C194.47 54.314 194.384 54.1063 194.337 53.873C194.295 53.635 194.274 53.39 194.274 53.138V44.598H195.548V53.012C195.548 53.376 195.618 53.649 195.758 53.831C195.903 54.013 196.103 54.1133 196.36 54.132L196.752 54.139V54.979C196.645 55.0117 196.533 55.0373 196.416 55.056C196.299 55.0793 196.194 55.091 196.101 55.091ZM203.827 47.762L201.216 55H200.04L197.422 47.762H198.64L200.565 53.376H200.684L202.616 47.762H203.827ZM205.876 51.682C205.876 52.1393 205.951 52.5547 206.1 52.928C206.254 53.2967 206.485 53.5907 206.793 53.81C207.106 54.0293 207.495 54.139 207.962 54.139C208.424 54.139 208.821 54.0317 209.152 53.817C209.488 53.6023 209.703 53.292 209.796 52.886H211.021C210.932 53.376 210.736 53.789 210.433 54.125C210.13 54.461 209.763 54.7153 209.334 54.888C208.905 55.056 208.457 55.14 207.99 55.14C207.313 55.14 206.718 54.993 206.205 54.699C205.692 54.405 205.29 53.9827 205.001 53.432C204.712 52.8813 204.567 52.221 204.567 51.451C204.567 50.6903 204.698 50.023 204.959 49.449C205.22 48.875 205.598 48.427 206.093 48.105C206.592 47.783 207.192 47.622 207.892 47.622C208.573 47.622 209.15 47.769 209.621 48.063C210.092 48.357 210.449 48.7723 210.692 49.309C210.939 49.841 211.063 50.4733 211.063 51.206V51.682H205.876ZM205.883 50.807H209.817C209.817 50.3917 209.747 50.0183 209.607 49.687C209.467 49.351 209.252 49.0873 208.963 48.896C208.678 48.7 208.319 48.602 207.885 48.602C207.432 48.602 207.057 48.7117 206.758 48.931C206.464 49.1457 206.242 49.4233 206.093 49.764C205.948 50.1 205.878 50.4477 205.883 50.807ZM219.676 48.707H218.045V53.208C218.045 53.4647 218.071 53.6537 218.122 53.775C218.178 53.8917 218.269 53.9663 218.395 53.999C218.526 54.0317 218.703 54.048 218.927 54.048H219.718V54.916C219.629 54.9487 219.494 54.9767 219.312 55C219.135 55.0233 218.913 55.035 218.647 55.035C218.148 55.035 217.76 54.9673 217.485 54.832C217.21 54.6967 217.016 54.496 216.904 54.23C216.797 53.964 216.743 53.6373 216.743 53.25V48.707H215.567V47.762H216.778L217.093 45.655H218.045V47.755H219.676V48.707ZM221.536 55V44.598H222.796V48.826C222.917 48.6253 223.081 48.4387 223.286 48.266C223.491 48.0887 223.741 47.9463 224.035 47.839C224.329 47.727 224.67 47.671 225.057 47.671C225.528 47.671 225.955 47.7597 226.338 47.937C226.721 48.1097 227.024 48.357 227.248 48.679C227.472 49.001 227.584 49.3837 227.584 49.827V55H226.289V50.086C226.289 49.652 226.14 49.3183 225.841 49.085C225.547 48.847 225.162 48.728 224.686 48.728C224.364 48.728 224.061 48.7817 223.776 48.889C223.491 48.9917 223.26 49.1503 223.083 49.365C222.91 49.575 222.824 49.8433 222.824 50.17V55H221.536ZM230.526 51.682C230.526 52.1393 230.601 52.5547 230.75 52.928C230.904 53.2967 231.135 53.5907 231.443 53.81C231.756 54.0293 232.146 54.139 232.612 54.139C233.074 54.139 233.471 54.0317 233.802 53.817C234.138 53.6023 234.353 53.292 234.446 52.886H235.671C235.583 53.376 235.387 53.789 235.083 54.125C234.78 54.461 234.414 54.7153 233.984 54.888C233.555 55.056 233.107 55.14 232.64 55.14C231.964 55.14 231.369 54.993 230.855 54.699C230.342 54.405 229.941 53.9827 229.651 53.432C229.362 52.8813 229.217 52.221 229.217 51.451C229.217 50.6903 229.348 50.023 229.609 49.449C229.871 48.875 230.249 48.427 230.743 48.105C231.243 47.783 231.842 47.622 232.542 47.622C233.224 47.622 233.8 47.769 234.271 48.063C234.743 48.357 235.1 48.7723 235.342 49.309C235.59 49.841 235.713 50.4733 235.713 51.206V51.682H230.526ZM230.533 50.807H234.467C234.467 50.3917 234.397 50.0183 234.257 49.687C234.117 49.351 233.903 49.0873 233.613 48.896C233.329 48.7 232.969 48.602 232.535 48.602C232.083 48.602 231.707 48.7117 231.408 48.931C231.114 49.1457 230.893 49.4233 230.743 49.764C230.599 50.1 230.529 50.4477 230.533 50.807ZM75.471 67.762V75H74.218V67.762H75.471ZM75.499 64.885V66.229H74.176V64.885H75.499ZM80.3177 75.14C79.8137 75.14 79.3447 75.063 78.9107 74.909C78.4814 74.7503 78.1244 74.5053 77.8397 74.174C77.5551 73.838 77.3754 73.411 77.3007 72.893H78.4767C78.5421 73.1777 78.6587 73.4157 78.8267 73.607C78.9994 73.7937 79.2141 73.936 79.4707 74.034C79.7274 74.1273 80.0074 74.174 80.3107 74.174C80.7961 74.174 81.1881 74.083 81.4867 73.901C81.7854 73.719 81.9347 73.439 81.9347 73.061C81.9347 72.795 81.8554 72.5827 81.6967 72.424C81.5427 72.2607 81.3024 72.1417 80.9757 72.067L79.4777 71.696C78.8944 71.556 78.4277 71.3367 78.0777 71.038C77.7277 70.7393 77.5527 70.3217 77.5527 69.785C77.5481 69.3603 77.6484 68.987 77.8537 68.665C78.0591 68.343 78.3671 68.0887 78.7777 67.902C79.1884 67.7153 79.6994 67.622 80.3107 67.622C81.0947 67.622 81.7271 67.7993 82.2077 68.154C82.6931 68.504 82.9451 69.0197 82.9637 69.701H81.8227C81.7761 69.3557 81.6197 69.0827 81.3537 68.882C81.0924 68.6767 80.7401 68.574 80.2967 68.574C79.8347 68.574 79.4591 68.6673 79.1697 68.854C78.8804 69.036 78.7357 69.3207 78.7357 69.708C78.7357 69.9647 78.8384 70.1677 79.0437 70.317C79.2491 70.4617 79.5524 70.583 79.9537 70.681L81.4027 71.045C81.7387 71.1337 82.0141 71.2503 82.2287 71.395C82.4481 71.5397 82.6207 71.7007 82.7467 71.878C82.8774 72.0553 82.9684 72.242 83.0197 72.438C83.0757 72.6293 83.1037 72.8137 83.1037 72.991C83.1037 73.4343 82.9917 73.817 82.7677 74.139C82.5484 74.4563 82.2311 74.7037 81.8157 74.881C81.4051 75.0537 80.9057 75.14 80.3177 75.14ZM87.3724 75.14C86.8684 75.14 86.3994 75.063 85.9654 74.909C85.5361 74.7503 85.1791 74.5053 84.8944 74.174C84.6098 73.838 84.4301 73.411 84.3554 72.893H85.5314C85.5968 73.1777 85.7134 73.4157 85.8814 73.607C86.0541 73.7937 86.2688 73.936 86.5254 74.034C86.7821 74.1273 87.0621 74.174 87.3654 74.174C87.8508 74.174 88.2428 74.083 88.5414 73.901C88.8401 73.719 88.9894 73.439 88.9894 73.061C88.9894 72.795 88.9101 72.5827 88.7514 72.424C88.5974 72.2607 88.3571 72.1417 88.0304 72.067L86.5324 71.696C85.9491 71.556 85.4824 71.3367 85.1324 71.038C84.7824 70.7393 84.6074 70.3217 84.6074 69.785C84.6028 69.3603 84.7031 68.987 84.9084 68.665C85.1138 68.343 85.4218 68.0887 85.8324 67.902C86.2431 67.7153 86.7541 67.622 87.3654 67.622C88.1494 67.622 88.7818 67.7993 89.2624 68.154C89.7478 68.504 89.9998 69.0197 90.0184 69.701H88.8774C88.8308 69.3557 88.6744 69.0827 88.4084 68.882C88.1471 68.6767 87.7948 68.574 87.3514 68.574C86.8894 68.574 86.5138 68.6673 86.2244 68.854C85.9351 69.036 85.7904 69.3207 85.7904 69.708C85.7904 69.9647 85.8931 70.1677 86.0984 70.317C86.3038 70.4617 86.6071 70.583 87.0084 70.681L88.4574 71.045C88.7934 71.1337 89.0688 71.2503 89.2834 71.395C89.5028 71.5397 89.6754 71.7007 89.8014 71.878C89.9321 72.0553 90.0231 72.242 90.0744 72.438C90.1304 72.6293 90.1584 72.8137 90.1584 72.991C90.1584 73.4343 90.0464 73.817 89.8224 74.139C89.6031 74.4563 89.2858 74.7037 88.8704 74.881C88.4598 75.0537 87.9604 75.14 87.3724 75.14ZM94.6275 75.14C94.2495 75.1353 93.8925 75.0817 93.5565 74.979C93.2252 74.8717 92.9312 74.7153 92.6745 74.51C92.4178 74.3047 92.2148 74.0503 92.0655 73.747C91.9208 73.439 91.8485 73.082 91.8485 72.676V67.762H93.1435V72.543C93.1435 73.0143 93.2882 73.397 93.5775 73.691C93.8715 73.985 94.3125 74.132 94.9005 74.132C95.4325 74.132 95.8595 73.9943 96.1815 73.719C96.5082 73.439 96.6715 73.0237 96.6715 72.473V67.762H97.9595V75H96.9305L96.7975 73.614C96.7088 73.978 96.5572 74.272 96.3425 74.496C96.1325 74.72 95.8782 74.8857 95.5795 74.993C95.2855 75.0957 94.9682 75.1447 94.6275 75.14ZM100.903 71.682C100.903 72.1393 100.978 72.5547 101.127 72.928C101.281 73.2967 101.512 73.5907 101.82 73.81C102.133 74.0293 102.523 74.139 102.989 74.139C103.451 74.139 103.848 74.0317 104.179 73.817C104.515 73.6023 104.73 73.292 104.823 72.886H106.048C105.96 73.376 105.764 73.789 105.46 74.125C105.157 74.461 104.791 74.7153 104.361 74.888C103.932 75.056 103.484 75.14 103.017 75.14C102.341 75.14 101.746 74.993 101.232 74.699C100.719 74.405 100.318 73.9827 100.028 73.432C99.7389 72.8813 99.5942 72.221 99.5942 71.451C99.5942 70.6903 99.7249 70.023 99.9862 69.449C100.248 68.875 100.626 68.427 101.12 68.105C101.62 67.783 102.219 67.622 102.919 67.622C103.601 67.622 104.177 67.769 104.648 68.063C105.12 68.357 105.477 68.7723 105.719 69.309C105.967 69.841 106.09 70.4733 106.09 71.206V71.682H100.903ZM100.91 70.807H104.844C104.844 70.3917 104.774 70.0183 104.634 69.687C104.494 69.351 104.28 69.0873 103.99 68.896C103.706 68.7 103.346 68.602 102.912 68.602C102.46 68.602 102.084 68.7117 101.785 68.931C101.491 69.1457 101.27 69.4233 101.12 69.764C100.976 70.1 100.906 70.4477 100.91 70.807ZM110.396 75.14C109.892 75.14 109.423 75.063 108.989 74.909C108.56 74.7503 108.203 74.5053 107.918 74.174C107.633 73.838 107.454 73.411 107.379 72.893H108.555C108.62 73.1777 108.737 73.4157 108.905 73.607C109.078 73.7937 109.292 73.936 109.549 74.034C109.806 74.1273 110.086 74.174 110.389 74.174C110.874 74.174 111.266 74.083 111.565 73.901C111.864 73.719 112.013 73.439 112.013 73.061C112.013 72.795 111.934 72.5827 111.775 72.424C111.621 72.2607 111.381 72.1417 111.054 72.067L109.556 71.696C108.973 71.556 108.506 71.3367 108.156 71.038C107.806 70.7393 107.631 70.3217 107.631 69.785C107.626 69.3603 107.727 68.987 107.932 68.665C108.137 68.343 108.445 68.0887 108.856 67.902C109.267 67.7153 109.778 67.622 110.389 67.622C111.173 67.622 111.805 67.7993 112.286 68.154C112.771 68.504 113.023 69.0197 113.042 69.701H111.901C111.854 69.3557 111.698 69.0827 111.432 68.882C111.171 68.6767 110.818 68.574 110.375 68.574C109.913 68.574 109.537 68.6673 109.248 68.854C108.959 69.036 108.814 69.3207 108.814 69.708C108.814 69.9647 108.917 70.1677 109.122 70.317C109.327 70.4617 109.631 70.583 110.032 70.681L111.481 71.045C111.817 71.1337 112.092 71.2503 112.307 71.395C112.526 71.5397 112.699 71.7007 112.825 71.878C112.956 72.0553 113.047 72.242 113.098 72.438C113.154 72.6293 113.182 72.8137 113.182 72.991C113.182 73.4343 113.07 73.817 112.846 74.139C112.627 74.4563 112.309 74.7037 111.894 74.881C111.483 75.0537 110.984 75.14 110.396 75.14Z" fill="white"/>
<defs>
<clipPath id="clip0_153_3430">
<rect width="40" height="40" fill="white" transform="translate(17 28)"/>
</clipPath>
</defs>
</svg>
