<svg width="40" height="40" viewBox="0 0 40 40" fill="none" xmlns="http://www.w3.org/2000/svg">
<g clip-path="url(#clip0_150_2906)">
<path d="M27.1914 40C26.4203 39.739 25.6522 39.4677 24.8758 39.2193C23.6893 38.8394 23.3512 38.2173 23.706 37.0275C23.8991 36.3793 24.1537 35.7427 24.2727 35.082C24.4949 33.8348 25.9611 33.2461 26.9264 34.4422C28.7171 33.5937 30.3012 32.4529 31.6589 31.0053C34.2468 28.2478 35.665 24.9696 36.0073 21.2091C36.1148 20.0245 37.0696 19.2271 38.1779 19.3429C39.331 19.463 40.0938 20.4023 39.9915 21.6067C39.7077 24.9341 38.6882 28.0172 36.8745 30.8258C34.9178 33.8567 32.3288 36.1936 29.1126 37.8322C29.0208 37.8792 28.9331 37.9334 28.8465 37.9825C28.9467 39.2673 28.7922 39.5679 27.8176 40C27.6078 40 27.3991 40 27.1914 40ZM27.6287 38.6953C27.5369 38.5064 27.5003 38.4261 27.4596 38.3467C27.0328 37.5066 27.1048 37.3249 27.9532 36.9116C33.4026 34.2565 36.84 29.972 38.2613 24.0855C38.4711 23.2172 38.5535 22.3165 38.6621 21.4272C38.7132 21.0108 38.4241 20.7008 38.0443 20.6747C37.6665 20.6497 37.3973 20.8855 37.3378 21.2968C37.319 21.4251 37.3023 21.5546 37.2888 21.684C36.8724 25.7983 35.1985 29.3239 32.2985 32.263C30.7833 33.7983 29.0239 34.987 27.0506 35.8575C26.4881 36.1059 26.223 36.013 25.9329 35.4797C25.8755 35.3732 25.8108 35.2699 25.7054 35.0925C25.4289 35.99 25.1732 36.8041 24.9353 37.6245C24.9155 37.6923 25.0073 37.852 25.0793 37.876C25.8881 38.1474 26.702 38.401 27.6287 38.6953Z" fill="#F2F4F5"/>
<path d="M-0.000909583 18.1228C0.124315 17.3818 0.217191 16.6335 0.381027 15.9008C1.76059 9.72934 5.25958 5.16626 10.8352 2.18961C10.9479 2.12908 11.0606 2.06854 11.19 1.99862C11.1671 1.89946 11.1462 1.81388 11.1264 1.72725C10.8843 0.660587 11.812 -0.238044 12.867 0.0656747C13.7404 0.317208 14.6076 0.596921 15.4675 0.890202C16.2376 1.15322 16.6029 1.87546 16.3806 2.67389C16.15 3.49946 15.9048 4.3219 15.647 5.14017C15.2807 6.30599 14.0243 6.57318 13.1989 5.66828C13.1644 5.62967 13.1373 5.58479 13.0997 5.53365C9.76977 7.16078 7.27571 9.59366 5.62378 12.8824C4.70233 14.7172 4.19308 16.6679 4.00107 18.7094C3.89672 19.823 3.21111 20.538 2.20514 20.6434C1.22316 20.7467 0.427986 20.1914 0.06379 19.1488C0.052311 19.1154 0.0199613 19.0882 -0.00195312 19.058C-0.000909583 18.748 -0.000909583 18.4359 -0.000909583 18.1228ZM12.3692 1.29829C12.484 1.52686 12.5435 1.65002 12.6072 1.77213C12.9484 2.42862 12.8461 2.70938 12.1741 3.03188C6.5494 5.72464 3.05667 10.1249 1.67711 16.1982C1.50179 16.9685 1.42979 17.7648 1.34109 18.5518C1.29308 18.9787 1.56127 19.2855 1.94008 19.321C2.33349 19.3586 2.61316 19.1164 2.66847 18.6822C2.70186 18.4244 2.7123 18.1635 2.74987 17.9057C3.67549 11.6372 6.96578 7.08668 12.652 4.27494C13.3804 3.91486 13.7811 3.80214 14.1933 4.73939C14.208 4.77174 14.2424 4.79575 14.2674 4.82393C14.2914 4.8041 14.3238 4.79157 14.33 4.77174C14.5001 4.23945 14.6692 3.70821 14.8341 3.17487C15.1419 2.17605 15.1398 2.17709 14.1266 1.8598C13.5756 1.68655 13.0267 1.50808 12.3692 1.29829Z" fill="#F2F4F5"/>
<path d="M18.1274 39.9999C17.4 39.8767 16.6654 39.7859 15.9464 39.6263C9.73207 38.2444 5.14153 34.7313 2.16639 29.1036C2.11839 29.0128 2.06517 28.9241 2.01717 28.8385C0.747176 28.9512 0.458115 28.803 0 27.8115C0 27.6028 0 27.3951 0 27.1863C0.264016 26.4025 0.534293 25.6208 0.791005 24.8349C1.16146 23.6962 1.79489 23.3518 2.9334 23.6899C3.59396 23.8851 4.242 24.1481 4.91508 24.2671C6.18194 24.4915 6.73606 25.9694 5.5579 26.9212C6.47205 28.8427 7.7149 30.5231 9.30631 31.9425C11.9872 34.3336 15.1293 35.6602 18.7003 35.9973C19.7897 36.1006 20.5348 36.802 20.6266 37.7591C20.7279 38.8038 20.1644 39.6022 19.0895 39.9435C19.053 39.955 19.0217 39.9801 18.9872 39.9999C18.7003 39.9999 18.4133 39.9999 18.1274 39.9999ZM1.30338 27.6289C1.53714 27.512 1.65193 27.4577 1.76463 27.3982C2.42623 27.0548 2.70277 27.1561 3.02836 27.8199C6.17568 34.2522 11.3256 37.8436 18.4289 38.6525C18.9424 38.7109 19.2794 38.4813 19.3243 38.068C19.3713 37.6432 19.1166 37.3698 18.5782 37.3207C14.9519 36.9878 11.7211 35.6894 8.91289 33.3651C6.81224 31.6252 5.2198 29.4981 4.12616 26.9995C3.9018 26.487 4.00407 26.2042 4.4914 25.9412C4.60724 25.8786 4.72203 25.8128 4.91717 25.7032C4.01451 25.4246 3.21202 25.1709 2.40432 24.9361C2.3271 24.9131 2.15283 24.982 2.13196 25.0446C1.8575 25.864 1.60079 26.6906 1.30338 27.6289Z" fill="#F2F4F5"/>
<path d="M32.6826 20.0234C32.6575 20.3866 32.6471 20.7509 32.6043 21.112C32.5438 21.6338 32.2537 22.0002 31.7737 22.2058C31.3197 22.3999 30.8522 22.5638 30.4056 22.7736C30.2647 22.8404 30.1332 22.9938 30.0664 23.1399C29.8035 23.7181 29.5572 24.3057 29.3318 24.8996C29.2754 25.0488 29.2702 25.2513 29.3234 25.4006C29.4852 25.8525 29.6876 26.2898 29.8744 26.7334C30.1061 27.2824 30.0184 27.7886 29.6208 28.2175C29.1794 28.6945 28.7171 29.1527 28.2444 29.5994C27.7946 30.0242 27.2697 30.115 26.6937 29.8624C26.2648 29.6745 25.839 29.4783 25.3997 29.3197C25.2515 29.2665 25.048 29.2738 24.8999 29.3301C24.3061 29.5566 23.7196 29.804 23.1404 30.068C22.9943 30.1348 22.842 30.2695 22.7762 30.4114C22.578 30.8341 22.4267 31.2787 22.2482 31.7108C22.0312 32.2348 21.645 32.5771 21.0742 32.6053C20.3615 32.6408 19.6435 32.6408 18.9308 32.6053C18.3589 32.5771 17.976 32.2295 17.7599 31.7056C17.5815 31.2735 17.4302 30.8289 17.233 30.4051C17.1662 30.2632 17.0117 30.1296 16.8656 30.0638C16.275 29.7956 15.676 29.5472 15.0718 29.3113C14.9455 29.2623 14.7692 29.2571 14.6429 29.3051C14.1806 29.4783 13.7308 29.6839 13.2758 29.876C12.728 30.1066 12.2198 30.0252 11.7909 29.6265C11.3056 29.1757 10.836 28.7049 10.3842 28.2207C9.97303 27.7802 9.89059 27.2646 10.1348 26.7021C10.3518 26.2011 10.7202 25.6991 10.7265 25.1939C10.7327 24.7096 10.2913 24.2368 10.1703 23.7296C10.0054 23.0397 9.59005 22.7287 8.95662 22.497C7.46644 21.9511 7.35374 21.7445 7.34226 20.1497C7.33913 19.7593 7.35165 19.369 7.384 18.9797C7.43514 18.3587 7.77951 17.9548 8.35659 17.7346C8.75731 17.5811 9.16429 17.4392 9.54727 17.2503C9.71006 17.1699 9.86555 17.004 9.94277 16.838C10.2057 16.2734 10.4416 15.6962 10.6639 15.1149C10.7213 14.9646 10.739 14.7621 10.6858 14.6149C10.5198 14.1505 10.3091 13.7027 10.1202 13.2466C9.89894 12.7122 9.98347 12.2134 10.3696 11.7959C10.8287 11.3001 11.3088 10.8211 11.8034 10.3618C12.2208 9.97461 12.7207 9.89216 13.2539 10.1134C13.7705 10.3274 14.2818 10.7156 14.7984 10.7188C15.3087 10.7219 15.8043 10.2742 16.3355 10.1416C16.9804 9.98087 17.2883 9.60305 17.4865 9.00083C17.9749 7.52086 18.2702 7.32882 19.9211 7.33925C20.3114 7.34134 20.7027 7.35282 21.0899 7.3904C21.645 7.44467 22.0228 7.76195 22.2357 8.2692C22.4173 8.70025 22.5644 9.14695 22.7648 9.56861C22.8368 9.71995 23.0006 9.86189 23.1561 9.9339C23.7217 10.1938 24.2977 10.4349 24.88 10.6551C25.0397 10.7156 25.2557 10.7282 25.4143 10.6718C25.8672 10.5121 26.3024 10.3055 26.7459 10.1186C27.2791 9.89424 27.7811 9.97357 28.1985 10.3576C28.7046 10.8242 29.193 11.3137 29.6584 11.8209C30.033 12.229 30.103 12.7227 29.8922 13.2404C29.7064 13.6975 29.4904 14.1432 29.3213 14.6066C29.2681 14.7537 29.2806 14.9573 29.337 15.1065C29.5634 15.7004 29.8108 16.2869 30.0716 16.8672C30.1322 17.0019 30.2574 17.1428 30.3889 17.2044C30.7875 17.3922 31.2008 17.553 31.614 17.7064C32.26 17.9454 32.5991 18.4057 32.6335 19.0872C32.6492 19.3982 32.6367 19.7113 32.6367 20.0234C32.6523 20.0224 32.6669 20.0224 32.6826 20.0234ZM14.9215 27.7719C15.053 27.8199 15.1876 27.8627 15.317 27.9159C16.1195 28.2468 16.9272 28.5651 17.7172 28.9231C17.9332 29.0212 18.12 29.2247 18.2681 29.4188C18.3892 29.5785 18.433 29.7977 18.5092 29.9908C19.0905 31.4499 19.0915 31.4561 20.6746 31.3006C20.8144 31.2871 21.0012 31.1483 21.0617 31.0188C21.2986 30.5137 21.5031 29.9918 21.7014 29.47C21.8183 29.1631 22.0259 29.0076 22.3307 28.8928C23.107 28.6016 23.8772 28.2895 24.6296 27.942C24.9426 27.7969 25.215 27.7635 25.5197 27.9055C25.6731 27.9775 25.8276 28.0443 25.9831 28.11C27.4315 28.7258 27.4273 28.7216 28.4823 27.5099C28.6263 27.344 28.6378 27.2187 28.5533 27.0288C28.3206 26.5069 28.0764 25.985 27.9032 25.4423C27.8291 25.2106 27.8552 24.9038 27.9418 24.671C28.2402 23.8705 28.5679 23.0794 28.9238 22.3018C29.0271 22.0764 29.2243 21.8394 29.4413 21.7299C29.9506 21.4742 30.5016 21.303 31.0234 21.0702C31.1371 21.0201 31.2675 20.8625 31.2759 20.7467C31.3124 20.2551 31.3218 19.7593 31.302 19.2667C31.2978 19.153 31.1611 18.9943 31.0463 18.9432C30.5256 18.7073 29.9955 18.4923 29.4612 18.2888C29.1679 18.1771 29.0156 17.9777 28.9039 17.6886C28.6023 16.9027 28.2851 16.121 27.9376 15.3539C27.8019 15.0554 27.7706 14.7934 27.9011 14.4991C28.1265 13.9877 28.354 13.4762 28.5533 12.9544C28.5971 12.8396 28.5731 12.6371 28.4959 12.5484C28.1807 12.1862 27.8447 11.8387 27.4878 11.5172C27.395 11.4337 27.1789 11.4045 27.0569 11.4494C26.5215 11.6477 26.0102 11.918 25.4665 12.0892C25.2244 12.1653 24.9051 12.134 24.6609 12.0432C23.8709 11.752 23.105 11.3961 22.3181 11.0966C22.0291 10.986 21.8162 10.8419 21.7118 10.5455C21.6471 10.3618 21.5657 10.1844 21.4937 10.0028C20.9135 8.54369 20.9125 8.53743 19.3305 8.69085C19.1896 8.70442 19.0028 8.84219 18.9423 8.97161C18.7012 9.48929 18.5301 10.0414 18.2723 10.5486C18.1617 10.7657 17.929 10.9682 17.7036 11.0715C16.9262 11.4274 16.1341 11.7531 15.3337 12.0516C15.1 12.1382 14.814 12.1278 14.5594 12.1006C14.3736 12.0808 14.1994 11.9587 14.0199 11.8825C12.5694 11.2667 12.5735 11.2698 11.5216 12.4816C11.3776 12.6475 11.3662 12.7728 11.4507 12.9627C11.6792 13.4731 11.8817 13.9939 12.1039 14.5064C12.2323 14.8038 12.1937 15.0637 12.0591 15.3612C11.7147 16.1158 11.3975 16.8829 11.1063 17.6594C10.9915 17.9642 10.8392 18.176 10.5324 18.2929C10.0221 18.486 9.51179 18.6833 9.01715 18.9129C8.88566 18.9745 8.73643 19.1509 8.72287 19.2865C8.67904 19.7385 8.69574 20.1956 8.68217 20.6507C8.67591 20.8772 8.77191 21.0003 8.98897 21.0796C9.48883 21.2633 9.97721 21.4783 10.475 21.6683C10.8173 21.7987 10.9957 22.0284 11.1199 22.3822C11.3829 23.1263 11.6907 23.858 12.0309 24.5719C12.1979 24.9215 12.2313 25.2211 12.0685 25.5697C11.8493 26.0404 11.6406 26.5184 11.4653 27.0068C11.4173 27.1415 11.4476 27.3669 11.5352 27.4755C11.7961 27.798 12.1112 28.0756 12.3878 28.3866C12.5892 28.611 12.7791 28.6548 13.063 28.516C13.5294 28.2875 14.0168 28.1027 14.4978 27.9055C14.6304 27.8533 14.7692 27.8199 14.9215 27.7719Z" fill="#F2F4F5"/>
<path d="M37.9761 11.1531C38.2839 11.1312 38.5448 11.0769 38.7973 11.102C39.6155 11.1824 40.179 12.0058 39.9484 12.8105C39.6906 13.7102 39.4047 14.6015 39.0989 15.4856C38.8328 16.2548 38.1128 16.6002 37.304 16.3717C36.4911 16.142 35.6845 15.8905 34.8736 15.6536C34.331 15.495 33.9543 15.1662 33.8332 14.6036C33.709 14.0296 33.8917 13.5516 34.3498 13.1831C34.38 13.1581 34.4166 13.1404 34.4614 13.1122C33.827 11.7595 33.0391 10.5415 32.0686 9.44772C29.1801 6.19032 25.5527 4.39619 21.2231 3.99436C20.0366 3.88478 19.2403 2.94335 19.3499 1.82972C19.4616 0.681645 20.4101 -0.110528 21.6092 0.0147171C28.8806 0.774534 34.2778 4.36384 37.7862 10.7826C37.8519 10.9058 37.9145 11.0342 37.9761 11.1531ZM38.6951 12.3899C38.5104 12.4734 38.4165 12.51 38.3267 12.5559C37.5232 12.9661 37.3228 12.8846 36.919 12.057C34.1995 6.48256 29.8031 3.01954 23.7557 1.66377C22.9846 1.49052 22.1883 1.42059 21.4005 1.33709C21.0039 1.29534 20.7076 1.57819 20.6762 1.94453C20.6429 2.32235 20.8797 2.60206 21.2846 2.6626C21.413 2.68138 21.5424 2.69808 21.6718 2.71061C25.5298 3.08947 28.8879 4.59867 31.7493 7.20585C33.5431 8.84029 34.9154 10.7858 35.8848 13.0109C36.0977 13.5004 35.9954 13.7854 35.53 14.0452C35.409 14.1131 35.2869 14.1778 35.0803 14.2895C35.9975 14.5713 36.823 14.8291 37.6547 15.0702C37.7131 15.0869 37.855 14.9992 37.878 14.9324C38.1483 14.1235 38.4029 13.3073 38.6951 12.3899Z" fill="#F2F4F5"/>
<path d="M17.9275 22.3603C18.8593 21.1956 19.7443 20.0892 20.6302 18.9829C21.3461 18.0885 22.0609 17.195 22.7778 16.3016C23.0095 16.0136 23.2996 15.9134 23.6409 16.0845C23.9341 16.2307 24.0447 16.4926 23.9769 16.8026C23.9456 16.9466 23.8517 17.0875 23.7567 17.2065C22.0526 19.343 20.3454 21.4763 18.636 23.6076C18.2238 24.1221 17.869 24.1346 17.3984 23.6681C17.0467 23.3195 16.6982 22.9699 16.3486 22.6192C15.9573 22.2247 15.9113 21.8343 16.2192 21.5348C16.5249 21.2363 16.8871 21.277 17.2742 21.6642C17.484 21.8761 17.6833 22.0994 17.9275 22.3603Z" fill="#F2F4F5"/>
</g>
<defs>
<clipPath id="clip0_150_2906">
<rect width="40" height="40" fill="white"/>
</clipPath>
</defs>
</svg>
