<svg width="32" height="29" viewBox="0 0 32 29" fill="none" xmlns="http://www.w3.org/2000/svg">
<path d="M31.2344 16.25H26.2344C25.5713 16.25 24.9354 16.5134 24.4666 16.9823C23.9978 17.4511 23.7344 18.087 23.7344 18.75V25C23.7344 25.6631 23.9978 26.299 24.4666 26.7678C24.9354 27.2366 25.5713 27.5 26.2344 27.5H28.7344C29.3974 27.5 30.0333 27.2366 30.5021 26.7678C30.971 26.299 31.2344 25.6631 31.2344 25V16.25ZM31.2344 16.25C31.2344 14.2696 30.8424 12.3088 30.0807 10.4808C29.3191 8.65268 28.203 6.99352 26.7969 5.59899C25.3907 4.20447 23.7224 3.10219 21.888 2.35576C20.0537 1.60933 18.0897 1.23353 16.1094 1.25003C14.1304 1.2356 12.1681 1.61294 10.3355 2.36029C8.503 3.10765 6.83648 4.21026 5.432 5.60457C4.02751 6.99889 2.91283 8.65736 2.15218 10.4844C1.39153 12.3115 0.999947 14.271 1 16.25V25C1 25.6631 1.26339 26.299 1.73223 26.7678C2.20107 27.2366 2.83696 27.5 3.5 27.5H6C6.66304 27.5 7.29893 27.2366 7.76777 26.7678C8.23661 26.299 8.5 25.6631 8.5 25V18.75C8.5 18.087 8.23661 17.4511 7.76777 16.9823C7.29893 16.5134 6.66304 16.25 6 16.25H1" stroke="white" stroke-width="1.5" stroke-linecap="round" stroke-linejoin="round"/>
</svg>
