<svg width="28" height="28" viewBox="0 0 28 28" fill="none" xmlns="http://www.w3.org/2000/svg">
<path d="M21 25.6667C20.0278 25.6667 19.2014 25.3264 18.5208 24.6458C17.8403 23.9653 17.5 23.1389 17.5 22.1667C17.5 22.0306 17.5097 21.8894 17.5292 21.7432C17.5486 21.597 17.5778 21.4659 17.6167 21.35L9.39167 16.5667C9.06111 16.8583 8.69167 17.087 8.28333 17.2527C7.875 17.4183 7.44722 17.5008 7 17.5C6.02778 17.5 5.20139 17.1597 4.52083 16.4792C3.84028 15.7986 3.5 14.9722 3.5 14C3.5 13.0278 3.84028 12.2014 4.52083 11.5208C5.20139 10.8403 6.02778 10.5 7 10.5C7.44722 10.5 7.875 10.5828 8.28333 10.7485C8.69167 10.9142 9.06111 11.1425 9.39167 11.4333L17.6167 6.65001C17.5778 6.53334 17.5486 6.40229 17.5292 6.25684C17.5097 6.1114 17.5 5.97023 17.5 5.83334C17.5 4.86112 17.8403 4.03473 18.5208 3.35418C19.2014 2.67362 20.0278 2.33334 21 2.33334C21.9722 2.33334 22.7986 2.67362 23.4792 3.35418C24.1597 4.03473 24.5 4.86112 24.5 5.83334C24.5 6.80557 24.1597 7.63196 23.4792 8.31251C22.7986 8.99307 21.9722 9.33334 21 9.33334C20.5528 9.33334 20.125 9.2509 19.7167 9.08601C19.3083 8.92112 18.9389 8.69245 18.6083 8.40001L10.3833 13.1833C10.4222 13.3 10.4514 13.4315 10.4708 13.5777C10.4903 13.7239 10.5 13.8647 10.5 14C10.5 14.1361 10.4903 14.2773 10.4708 14.4235C10.4514 14.5697 10.4222 14.7008 10.3833 14.8167L18.6083 19.6C18.9389 19.3083 19.3083 19.0801 19.7167 18.9152C20.125 18.7503 20.5528 18.6675 21 18.6667C21.9722 18.6667 22.7986 19.007 23.4792 19.6875C24.1597 20.3681 24.5 21.1945 24.5 22.1667C24.5 23.1389 24.1597 23.9653 23.4792 24.6458C22.7986 25.3264 21.9722 25.6667 21 25.6667ZM21 7.00001C21.3306 7.00001 21.6078 6.8884 21.8318 6.66518C22.0558 6.44195 22.1674 6.16468 22.1667 5.83334C22.1667 5.50279 22.0547 5.2259 21.8307 5.00268C21.6067 4.77945 21.3298 4.66745 21 4.66668C20.6694 4.66668 20.3926 4.77868 20.1693 5.00268C19.9461 5.22668 19.8341 5.50357 19.8333 5.83334C19.8333 6.1639 19.9453 6.44118 20.1693 6.66518C20.3933 6.88918 20.6702 7.00079 21 7.00001ZM7 15.1667C7.33056 15.1667 7.60783 15.0547 7.83183 14.8307C8.05583 14.6067 8.16744 14.3298 8.16667 14C8.16667 13.6695 8.05467 13.3926 7.83067 13.1693C7.60667 12.9461 7.32978 12.8341 7 12.8333C6.66944 12.8333 6.39256 12.9453 6.16933 13.1693C5.94611 13.3933 5.83411 13.6702 5.83333 14C5.83333 14.3306 5.94533 14.6078 6.16933 14.8318C6.39333 15.0558 6.67022 15.1675 7 15.1667ZM21 23.3333C21.3306 23.3333 21.6078 23.2213 21.8318 22.9973C22.0558 22.7733 22.1674 22.4965 22.1667 22.1667C22.1667 21.8361 22.0547 21.5592 21.8307 21.336C21.6067 21.1128 21.3298 21.0008 21 21C20.6694 21 20.3926 21.112 20.1693 21.336C19.9461 21.56 19.8341 21.8369 19.8333 22.1667C19.8333 22.4972 19.9453 22.7745 20.1693 22.9985C20.3933 23.2225 20.6702 23.3341 21 23.3333Z" fill="#FA8232"/>
</svg>
